<svg version="1.1" id="Layer_1" xmlns="http://www.w3.org/2000/svg" xmlns:xlink="http://www.w3.org/1999/xlink" x="0px" y="0px"
	 width="100%" viewBox="0 0 1024 512" enable-background="new 0 0 1024 512" xml:space="preserve">
<path fill="#000000" opacity="1.000000" stroke="none" 
	d="
M522.139587,90.134239 
	C528.444275,83.861603 535.216187,78.765121 542.495239,74.325920 
	C548.198242,70.847893 548.355530,70.959930 551.480042,76.665359 
	C558.218933,88.970726 562.180725,102.075523 563.175781,116.077263 
	C563.244446,117.043640 563.534180,117.994316 563.906433,119.902283 
	C569.597046,117.947914 574.856140,115.598297 580.352539,114.040359 
	C590.042725,111.293709 599.911926,110.194458 609.922546,109.719780 
	C614.138977,109.519844 615.357056,111.202766 615.378784,115.256226 
	C615.450562,128.657501 612.338196,141.303818 607.159119,153.547806 
	C606.394226,155.356094 605.129456,157.009171 605.157288,159.071960 
	C606.128235,160.641449 607.711426,160.581726 609.166016,160.739395 
	C623.809631,162.326614 637.240051,167.448944 650.095398,174.439484 
	C653.497375,176.289398 653.572571,178.144440 651.837463,181.203491 
	C641.250244,199.868912 625.592346,212.944443 606.411316,221.842819 
	C579.262878,234.437347 551.017029,237.857620 522.410095,228.075928 
	C512.919250,224.830688 505.458313,225.071198 496.131348,228.754303 
	C446.651215,248.293381 391.636200,224.634262 367.275665,181.773636 
	C365.105621,177.955597 365.677277,176.033859 369.564575,174.009247 
	C381.358429,167.866608 393.560638,163.322250 406.986237,162.582245 
	C408.937988,162.474670 410.859314,161.815277 413.089783,161.349625 
	C412.523651,156.292847 410.029266,152.084305 408.533905,147.605225 
	C404.956635,136.890259 403.709320,125.883751 403.277161,114.701561 
	C403.137573,111.089157 404.643738,109.657860 408.313782,109.710739 
	C421.292328,109.897736 433.764191,112.337120 445.688141,117.501244 
	C447.960114,118.485214 450.244476,119.440590 452.345703,120.333755 
	C454.434753,119.264633 454.500275,117.578041 454.674805,115.918686 
	C456.196930,101.447502 461.194611,88.134956 468.021179,75.395317 
	C469.834656,72.011024 471.604431,71.374809 475.069672,73.497643 
	C487.173950,80.912880 497.539093,90.089554 505.509308,101.896751 
	C506.321350,103.099701 506.887543,104.612839 509.196777,105.245369 
	C512.843811,100.030243 517.166016,95.024567 522.139587,90.134239 
M579.974548,217.554184 
	C602.227051,211.693893 621.561523,201.322250 635.961426,181.961060 
	C624.995728,176.316803 614.047668,174.059006 602.693054,173.105530 
	C598.282959,172.735199 595.237305,173.937424 592.558716,177.699127 
	C587.621765,184.632599 581.598328,190.652618 575.057800,196.143463 
	C563.622498,205.743500 550.926453,213.119110 536.370117,217.955505 
	C545.308289,221.062454 558.134094,220.931015 579.974548,217.554184 
M408.531555,206.959930 
	C431.063904,221.416809 455.244354,226.119675 481.869873,219.999771 
	C480.601532,217.958313 479.131470,217.951126 477.932739,217.575531 
	C457.668274,211.226440 440.328094,200.162262 427.880585,183.030212 
	C422.375977,175.453949 416.359344,174.134979 408.416809,175.208374 
	C399.917877,176.356949 391.420502,177.549728 383.417114,182.158615 
	C389.892578,192.568512 398.378876,200.094116 408.531555,206.959930 
M518.253418,114.846634 
	C515.962769,117.594421 515.849548,120.430031 517.443298,123.643951 
	C518.692810,126.163742 519.573242,128.889771 520.401428,131.590500 
	C522.177856,137.383759 523.814575,143.219849 525.778625,149.966293 
	C530.809082,144.861328 534.563354,139.317856 539.763733,136.143326 
	C549.862427,129.978622 552.529175,121.984123 549.745605,110.995956 
	C547.934692,103.847656 547.291687,96.379814 543.089294,89.485237 
	C533.055664,96.444275 525.270447,104.749184 518.253418,114.846634 
M591.913147,124.424683 
	C583.619446,126.289101 575.649048,129.047455 567.946533,132.674057 
	C564.803589,134.153854 563.120728,136.061371 562.687073,139.691467 
	C561.781189,147.274872 560.106934,154.736465 557.714966,162.020737 
	C557.288818,163.318344 556.371582,164.739761 557.744568,166.412613 
	C567.135803,163.195541 576.856506,161.167633 586.756531,160.012161 
	C588.782471,159.775681 589.990845,158.686584 590.948547,156.946793 
	C595.126831,149.356659 598.748474,141.545349 600.746399,133.069809 
	C603.105957,123.060181 602.645935,122.572739 591.913147,124.424683 
M456.227722,154.014648 
	C452.886902,134.109528 452.925629,134.006256 435.882660,127.617249 
	C430.071289,125.438713 424.091736,123.471420 417.527374,123.908157 
	C417.370972,125.095947 417.135529,125.905334 417.179138,126.699379 
	C417.842529,138.768753 422.278320,149.647659 427.818329,160.170593 
	C428.471741,161.411667 429.472717,162.394379 430.891693,162.467651 
	C440.734314,162.975952 450.082062,165.916809 460.351379,168.832657 
	C458.904541,163.644714 457.674744,159.235001 456.227722,154.014648 
M466.418182,124.470474 
	C466.435028,126.277481 465.930023,128.329208 467.641785,129.596207 
	C475.774109,135.615662 482.988098,142.664505 490.478851,150.496658 
	C492.486023,143.703018 492.606476,136.980042 495.865326,131.677246 
	C502.492981,120.892700 499.099457,112.351509 491.337799,104.247131 
	C491.223480,104.127731 491.147705,103.971848 491.035553,103.849899 
	C486.355652,98.761536 481.848846,93.474609 475.445953,89.550201 
	C469.647400,100.622574 467.852020,112.072289 466.418182,124.470474 
M446.416718,178.269135 
	C444.605194,178.013336 442.795044,176.715820 440.826630,177.999237 
	C447.333374,189.063690 473.807098,205.538986 483.773895,204.879868 
	C475.791138,194.831970 468.747284,183.683533 454.758545,180.826370 
	C452.174103,180.298508 449.696472,179.247452 446.416718,178.269135 
M555.355042,181.855209 
	C544.414490,185.387024 541.705017,196.495651 534.910767,203.931808 
	C551.411499,198.558136 565.053589,189.205811 576.032043,175.886856 
	C568.769897,176.140427 562.306213,178.530167 555.355042,181.855209 
M505.723663,142.390717 
	C504.705048,147.612396 503.742676,152.845840 502.654999,158.053101 
	C500.928070,166.320892 504.322205,173.007645 508.772614,179.738907 
	C518.033447,165.146317 512.111938,151.307968 508.972809,136.795074 
	C506.535400,138.393311 506.492493,140.156357 505.723663,142.390717 
M542.132568,166.693680 
	C544.665222,160.503067 547.113770,154.290649 547.946472,146.947357 
	C534.166138,155.261612 524.634155,172.650299 527.139832,183.895798 
	C535.690735,179.499130 537.953674,176.963867 542.132568,166.693680 
M481.203400,160.300415 
	C477.316498,156.096100 473.895477,151.399017 468.682373,148.055038 
	C470.960266,164.051926 477.787964,181.674500 490.536072,184.204071 
	C491.736511,174.833313 487.530609,167.525223 481.203400,160.300415 
z"/>
<path fill="#000000" opacity="1.000000" stroke="none" 
	d="
M540.911499,310.998535 
	C539.188843,306.853394 537.618774,303.057220 536.019958,299.191559 
	C534.485291,300.106201 534.707336,301.183044 534.715576,302.146606 
	C534.788452,310.642670 535.019836,319.140228 534.910400,327.633575 
	C534.863647,331.267181 535.762085,333.583496 539.563538,334.719391 
	C541.444580,335.281494 544.816895,335.549622 543.766052,339.055237 
	C542.797607,342.286072 541.501221,345.315308 537.059082,345.131714 
	C531.569458,344.904938 526.063171,345.106689 520.564758,345.055847 
	C518.759827,345.039154 516.568481,345.208771 515.985718,342.964081 
	C515.404907,340.727234 514.848083,337.668182 517.119141,336.488464 
	C525.382202,332.196106 523.713379,324.709076 523.745056,317.719299 
	C523.785767,308.721222 523.595703,299.718719 523.828491,290.726471 
	C523.927307,286.909851 522.593262,284.871918 518.934814,283.844452 
	C517.075623,283.322266 513.942627,283.158875 514.671692,280.071960 
	C515.331421,277.278625 516.138489,273.785614 519.815063,273.449799 
	C528.115723,272.691711 536.458130,272.855499 544.774475,273.300385 
	C547.624634,273.452881 548.150330,276.210480 549.035339,278.315399 
	C553.682251,289.367859 558.278870,300.441345 562.916992,311.497498 
	C563.551208,313.009216 563.992493,314.667145 565.747070,315.894745 
	C568.643005,311.970032 569.897461,307.311523 571.758728,302.986969 
	C575.313660,294.727081 578.734985,286.403992 581.957275,278.009430 
	C583.282349,274.557281 585.317078,272.996124 589.024170,273.071442 
	C595.686523,273.206848 602.354370,273.044128 609.019043,273.105072 
	C610.951782,273.122772 613.367615,272.815430 614.023499,275.336243 
	C614.652527,277.753937 615.139893,280.882019 612.587402,282.183075 
	C605.193665,285.951782 606.058105,292.508240 606.117859,298.985107 
	C606.208557,308.815765 606.303589,318.650665 606.099121,328.477600 
	C606.020325,332.265411 607.198914,334.386597 611.005676,335.221405 
	C612.875977,335.631592 616.011475,335.537415 615.216431,338.833740 
	C614.566895,341.526947 613.513367,344.745819 610.083862,344.829773 
	C600.093994,345.074280 590.095276,344.981781 580.100220,344.962555 
	C578.688232,344.959839 577.448425,344.289673 577.109680,342.775757 
	C576.583923,340.425934 576.265015,337.471985 578.524170,336.367950 
	C586.287231,332.574249 585.189209,325.755676 585.133301,319.146637 
	C585.075745,312.350159 585.120544,305.552795 585.120544,297.305328 
	C581.499878,306.157806 578.366394,313.835266 575.219910,321.507416 
	C572.566040,327.978302 569.748169,334.387146 567.295166,340.932953 
	C565.987671,344.421814 563.625977,345.128479 560.307251,345.165100 
	C556.916443,345.202484 554.746399,344.260529 553.389160,340.855865 
	C549.442444,330.955322 545.194153,321.174988 540.911499,310.998535 
z"/>
<path fill="#000000" opacity="1.000000" stroke="none" 
	d="
M273.594971,293.139038 
	C273.906158,288.176361 274.183929,283.830414 267.838257,283.263214 
	C266.242157,283.120544 263.600189,282.676514 264.145935,280.183472 
	C264.726288,277.532501 265.463409,274.007416 268.868805,273.849152 
	C278.841980,273.385712 288.836853,273.346069 298.824219,273.263519 
	C301.262878,273.243347 302.187195,274.861145 302.277710,277.245728 
	C302.375092,279.812622 301.595367,282.040802 299.503845,283.314514 
	C292.052368,287.852356 294.212250,295.118317 294.031158,301.725647 
	C293.976898,303.706238 295.327972,304.070496 297.019073,304.228607 
	C303.512909,304.835693 309.984833,304.353241 316.463806,304.032593 
	C318.774719,303.918213 319.667603,302.641663 319.652832,300.458252 
	C319.624634,296.293915 319.522369,292.125275 319.666321,287.965912 
	C319.791962,284.337158 316.966858,284.368256 314.718170,283.501373 
	C312.881561,282.793396 309.647461,283.072235 310.375183,279.933838 
	C311.063080,276.967163 312.130707,273.698914 316.330750,273.636414 
	C325.154480,273.505219 333.976349,273.228149 342.800232,273.144501 
	C344.841248,273.125153 347.536407,272.638794 348.150085,275.530396 
	C348.701813,278.130188 349.080841,281.303162 346.394043,282.835541 
	C340.035797,286.461884 340.001434,292.185303 340.144928,298.377594 
	C340.376465,308.367523 340.328796,318.369141 340.139160,328.360901 
	C340.068054,332.108246 341.054260,334.321686 345.070099,334.964691 
	C346.914307,335.260010 350.138824,335.102142 349.466553,338.371002 
	C348.877960,341.232849 347.832397,344.714447 344.169434,344.811951 
	C334.184723,345.077789 324.188660,344.963837 314.197632,344.908936 
	C312.234406,344.898163 311.254730,343.553802 311.123566,341.632629 
	C310.957855,339.204559 311.171661,336.593964 313.412323,335.383240 
	C320.854950,331.361542 319.757751,324.536316 319.619202,317.928162 
	C319.567078,315.442871 318.461334,314.280731 315.959961,314.294983 
	C309.963043,314.329163 303.965240,314.345856 297.968872,314.276978 
	C295.234497,314.245544 294.001007,315.451355 294.039856,318.172516 
	C294.087402,321.503265 294.243042,324.853821 293.960327,328.162354 
	C293.633423,331.987274 295.044464,334.016998 298.842010,334.870819 
	C300.695374,335.287537 303.872559,335.379028 303.109131,338.532562 
	C302.471680,341.165619 301.505188,344.677124 298.194214,344.781738 
	C288.048859,345.102203 277.880798,345.113373 267.735687,344.794861 
	C264.444885,344.691559 263.039917,338.623993 266.317108,336.467041 
	C273.651276,331.639832 273.306305,324.826660 273.204620,317.588287 
	C273.092468,309.600861 273.444916,301.606903 273.594971,293.139038 
z"/>
<path fill="#000000" opacity="1.000000" stroke="none" 
	d="
M468.999084,272.965149 
	C474.325378,272.924164 479.161530,272.680298 483.976257,272.901581 
	C490.679749,273.209778 496.692139,275.448486 501.359314,280.506775 
	C508.281281,288.008789 507.553314,298.143219 499.559021,304.703827 
	C496.893585,306.891266 493.978546,308.774536 490.706573,311.136932 
	C497.500000,313.049744 498.357208,319.268860 501.070953,324.002136 
	C503.706909,328.599670 505.444366,333.803406 511.538788,335.179047 
	C513.140991,335.540680 514.039856,336.912292 513.375366,338.678040 
	C512.392395,341.290009 511.777435,344.626312 508.339905,344.817993 
	C502.534760,345.141724 496.697968,344.975128 490.876343,344.889252 
	C488.285278,344.851074 487.366364,342.733856 486.366913,340.769348 
	C482.592987,333.351288 478.801056,325.942139 474.961121,318.558136 
	C474.203033,317.100433 473.396698,315.577026 472.263336,314.428680 
	C470.890350,313.037537 468.729309,312.221313 469.862610,309.641205 
	C470.851410,307.389984 472.230988,305.990601 474.992310,305.614746 
	C481.282593,304.758484 483.536560,302.072662 483.727081,296.159760 
	C483.946075,289.361176 481.016296,284.932281 475.440308,283.632996 
	C470.060852,282.379578 467.136383,284.595398 467.123413,290.084717 
	C467.093140,302.905151 467.238586,315.727203 467.070343,328.545380 
	C467.022858,332.165253 468.142365,334.086609 471.789001,334.821686 
	C473.671539,335.201141 476.950012,335.182007 476.330627,338.208649 
	C475.732758,341.130188 474.734283,344.828217 470.713318,344.905884 
	C461.060944,345.092316 451.402252,344.977112 441.746368,344.934326 
	C440.177399,344.927368 438.697144,344.418671 438.266052,342.670349 
	C437.682190,340.302551 437.580200,337.367859 439.669220,336.214691 
	C448.007446,331.611725 446.702942,323.913696 446.670868,316.508026 
	C446.631897,307.517120 446.506226,298.521759 446.741425,289.536835 
	C446.839630,285.784668 445.319061,284.099182 441.860840,283.334656 
	C439.824432,282.884521 436.423523,283.173279 437.353821,279.577911 
	C438.125305,276.596405 439.303741,273.573853 443.542816,273.557739 
	C451.862305,273.526123 460.180603,273.183594 468.999084,272.965149 
z"/>
<path fill="#000000" opacity="1.000000" stroke="none" 
	d="
M748.349426,276.381348 
	C749.787476,273.179688 752.359741,273.128357 754.885498,273.110107 
	C762.548767,273.054749 770.213074,272.986145 777.875427,273.067932 
	C780.223022,273.092957 783.274719,272.277618 784.128052,275.644012 
	C784.942261,278.856232 784.114746,281.579865 780.664307,282.969238 
	C779.940186,283.260834 779.358887,283.906830 778.322876,284.679565 
	C781.446167,289.598724 785.461731,293.411438 789.342163,297.657898 
	C793.209229,294.424500 796.285950,291.251526 799.009094,287.836884 
	C798.324646,285.773468 796.384644,285.612854 795.172180,284.565582 
	C793.556152,283.169708 790.224548,282.880035 791.349731,279.639435 
	C792.496277,276.337311 793.815979,272.999756 798.384766,273.063599 
	C805.546814,273.163727 812.712036,273.026642 819.874817,273.097351 
	C821.953613,273.117828 824.569458,272.729858 825.078247,275.693207 
	C825.538025,278.371033 825.489380,281.132416 822.680847,282.758820 
	C813.853210,287.870758 807.791321,295.956360 800.714355,302.965240 
	C797.951477,305.701599 798.084534,307.830414 800.589661,310.566864 
	C806.774719,317.322998 812.779053,324.244263 818.902527,331.057343 
	C819.895081,332.161652 821.056763,333.147491 822.262390,334.019135 
	C824.178833,335.404694 827.238220,335.968567 825.693604,339.517944 
	C824.400513,342.489532 823.185974,345.209503 819.054016,345.110840 
	C810.562378,344.908142 802.062439,345.071564 793.566223,345.022003 
	C791.779236,345.011597 789.557983,345.242371 789.010681,342.932495 
	C788.435791,340.506378 788.051453,337.691162 790.665161,336.153717 
	C794.768799,333.739838 793.742249,331.447357 791.070557,328.738678 
	C788.511597,326.144440 786.135376,323.370056 783.299377,320.258484 
	C779.156189,323.264343 775.954163,326.958771 772.653687,330.337921 
	C773.250549,332.591431 775.077393,332.965454 776.345276,333.947876 
	C778.066895,335.281769 781.017822,335.836853 779.732178,339.101776 
	C778.549805,342.104523 777.304199,345.038391 773.267456,345.013458 
	C766.270813,344.970245 759.273254,345.053284 752.276978,344.988647 
	C750.052124,344.968109 747.206543,345.722076 746.331909,342.710022 
	C745.412170,339.542938 746.395264,336.728546 749.387329,334.984680 
	C757.716553,330.130219 764.003662,322.929901 770.849915,316.377502 
	C775.838501,311.603088 775.806519,311.540771 771.295654,306.417847 
	C765.902954,300.293610 760.472046,294.202942 755.078491,288.079437 
	C753.739929,286.559662 752.262634,285.214813 750.419922,284.372894 
	C746.696838,282.671967 746.078247,280.114655 748.349426,276.381348 
z"/>
<path fill="#000000" opacity="1.000000" stroke="none" 
	d="
M237.018723,318.329468 
	C234.798325,318.665833 232.987335,319.132172 231.177994,319.125824 
	C228.336823,319.115875 225.206238,319.001953 224.293167,315.552094 
	C223.653671,313.135773 227.672867,308.576447 230.454605,308.069061 
	C237.176254,306.843079 239.467789,303.892120 239.556427,296.348053 
	C239.633881,289.755707 236.108368,284.876892 230.442398,283.735535 
	C225.552078,282.750427 222.970932,284.613098 222.933426,289.506378 
	C222.830154,302.983826 222.915512,316.462738 222.791916,329.939880 
	C222.768661,332.474579 223.625870,333.575409 226.135025,333.788757 
	C228.448868,333.985535 230.759186,334.412720 233.024170,334.939941 
	C235.113297,335.426178 238.612839,334.862762 238.178253,338.157104 
	C237.767746,341.269012 236.623688,344.941925 232.230804,345.010162 
	C225.736877,345.111053 219.240677,345.066772 212.745438,345.078186 
	C208.248596,345.086090 203.751465,345.111908 199.254959,345.072662 
	C197.281143,345.055420 194.924042,345.335815 194.131653,342.969940 
	C193.316666,340.536652 193.139160,337.415985 195.584030,336.133331 
	C202.917694,332.285828 202.042847,325.725037 201.991104,319.246277 
	C201.913956,309.586975 201.843094,299.924011 202.038406,290.268036 
	C202.113983,286.531342 201.072723,284.283081 197.170197,283.502594 
	C195.216370,283.111816 192.299362,282.805939 193.032898,279.694672 
	C193.664932,277.014038 194.546356,274.015656 197.966553,273.449799 
	C199.922562,273.126129 201.942612,273.133087 203.935669,273.099152 
	C213.926102,272.929077 223.917801,272.829437 233.907730,272.635986 
	C240.876572,272.501068 247.487396,273.459259 253.318893,277.746735 
	C262.759521,284.687744 264.525269,297.172272 257.150269,306.262543 
	C252.020370,312.585510 245.165573,316.165436 237.018723,318.329468 
z"/>
<path fill="#000000" opacity="1.000000" stroke="none" 
	d="
M375.709656,345.059113 
	C368.751862,345.059845 362.259766,345.089630 355.768219,345.041077 
	C353.981628,345.027740 351.744873,345.342407 351.049835,343.168274 
	C350.339203,340.945282 350.317322,338.543030 352.034668,336.553284 
	C352.358856,336.177673 352.694397,335.742401 353.121857,335.535645 
	C361.665436,331.403442 363.923340,323.054749 367.004150,315.169525 
	C371.544830,303.547607 376.410736,292.052490 380.920593,280.419037 
	C382.161346,277.218384 384.184448,275.664093 387.394958,275.056274 
	C390.825134,274.406860 394.292419,273.773132 397.596985,272.686829 
	C401.564575,271.382629 403.339874,273.030273 404.744751,276.525879 
	C411.506378,293.349945 418.484467,310.087036 425.227325,326.918457 
	C426.608429,330.365967 428.344727,332.989685 432.069519,334.204346 
	C433.983765,334.828644 436.697235,335.593903 435.881042,338.520752 
	C435.089294,341.359772 434.107330,344.754303 430.407471,344.831451 
	C419.760681,345.053558 409.107117,344.970032 398.456268,344.955872 
	C396.858398,344.953766 395.454193,344.314087 395.108215,342.548157 
	C394.719025,340.561676 394.503357,338.474945 396.236084,336.971588 
	C397.224182,336.114288 398.578857,335.691132 399.622467,334.883759 
	C401.628571,333.331787 405.643250,333.211670 404.146973,329.012115 
	C402.801117,325.234558 401.729218,321.460297 396.145020,322.025574 
	C391.037292,322.542633 385.820831,322.372192 380.680115,322.054413 
	C376.529083,321.797791 375.189117,324.270721 374.070282,327.431763 
	C372.807098,331.000702 376.095581,330.957733 377.766479,332.191803 
	C378.298859,332.585022 379.015411,332.767548 379.466614,333.225067 
	C381.243286,335.026520 385.709869,334.765320 384.416229,338.891937 
	C383.215942,342.720825 381.072449,345.886719 375.709656,345.059113 
M392.849823,311.734375 
	C394.305603,311.452667 396.873993,312.086487 395.927490,309.328552 
	C393.941742,303.542297 391.913116,297.735596 388.573792,291.549255 
	C386.962891,295.335754 385.665649,298.184357 384.527679,301.095245 
	C380.067291,312.504852 378.788391,311.807983 392.849823,311.734375 
z"/>
<path fill="#000000" opacity="1.000000" stroke="none" 
	d="
M648.429565,342.654541 
	C646.998474,345.041504 644.959229,345.010681 642.943176,345.013824 
	C635.952515,345.024719 628.961609,345.064941 621.971436,345.006042 
	C620.053223,344.989838 617.608765,345.425232 616.982422,342.845825 
	C616.392517,340.416656 616.063660,337.422455 618.604797,336.018188 
	C631.356689,328.971588 632.042053,314.903748 637.527588,303.700104 
	C641.246460,296.104492 643.973267,288.017334 647.027405,280.105103 
	C648.094849,277.339661 649.881165,275.819550 652.790466,275.266785 
	C656.381348,274.584503 659.987671,273.847900 663.467712,272.754211 
	C667.378540,271.525177 669.198364,273.021088 670.624756,276.598755 
	C676.846802,292.204529 683.318420,307.710602 689.613953,323.287415 
	C691.691162,328.427032 693.511841,333.614594 699.765320,335.227509 
	C701.227478,335.604645 702.621948,336.760773 701.820923,338.589020 
	C700.725220,341.089935 700.266785,344.709412 696.815247,344.786499 
	C685.839600,345.031555 674.854553,344.889679 663.873657,344.823456 
	C662.450684,344.814911 661.313110,343.972626 661.055237,342.445221 
	C660.717773,340.446411 660.524414,338.383118 662.299561,336.898834 
	C663.178589,336.163849 664.356750,335.795593 665.278320,335.100586 
	C667.305420,333.571655 671.307800,333.842133 670.418762,329.592560 
	C669.224792,323.885742 667.244141,322.141510 661.831726,322.111603 
	C656.672058,322.083099 651.497925,322.335052 646.356873,322.023499 
	C642.105042,321.765869 640.953064,324.471344 639.948669,327.588440 
	C638.823120,331.081360 642.184265,331.044434 643.809143,332.341492 
	C644.449036,332.852203 645.227539,333.222229 645.991638,333.538818 
	C650.478149,335.397552 651.831970,338.167969 648.429565,342.654541 
M654.610596,292.609314 
	C650.827881,298.261169 649.107361,304.726959 646.331299,311.700073 
	C652.253540,311.609528 657.224365,312.307281 662.747192,311.177704 
	C660.138977,304.563812 658.181824,298.456879 654.610596,292.609314 
z"/>
<path fill="#000000" opacity="1.000000" stroke="none" 
	d="
M710.000000,246.768890 
	C747.123413,246.752518 783.746826,246.721573 820.370178,246.758255 
	C822.539001,246.760422 825.183105,245.827713 826.519104,248.704849 
	C827.969788,251.828949 826.303894,254.698776 822.819336,255.027451 
	C821.993469,255.105331 821.155823,255.068130 820.323608,255.067719 
	C770.882019,255.043640 721.440430,255.028305 671.998901,254.957794 
	C669.803284,254.954666 667.105042,255.825958 665.749023,253.121231 
	C664.062988,249.758133 666.251282,246.841187 670.546082,246.818451 
	C683.530457,246.749695 696.515320,246.778503 710.000000,246.768890 
z"/>
<path fill="#000000" opacity="1.000000" stroke="none" 
	d="
M316.000000,242.186249 
	C276.718079,242.192307 237.936127,242.199585 199.154190,242.194870 
	C197.660049,242.194687 196.143768,242.218948 194.676636,241.986649 
	C192.068268,241.573685 191.861679,239.540802 191.902435,237.429810 
	C191.943253,235.314819 192.782974,233.864655 195.106201,233.826294 
	C198.766922,233.765793 202.428711,233.751404 206.090057,233.751724 
	C253.027847,233.755737 299.965668,233.752762 346.903381,233.816132 
	C349.067474,233.819061 351.782562,232.870392 353.081757,235.710358 
	C354.710480,239.270676 352.716614,242.127441 348.457397,242.158661 
	C337.805420,242.236710 327.152527,242.185028 316.000000,242.186249 
z"/>
<path fill="#000000" opacity="1.000000" stroke="none" 
	d="
M347.784882,255.055450 
	C297.823761,255.057007 248.339233,255.056458 198.854721,255.051010 
	C197.689301,255.050888 196.520767,255.039749 195.359100,254.957367 
	C192.542603,254.757675 191.840317,252.936935 191.894333,250.461334 
	C191.947739,248.014389 193.077713,246.754944 195.561310,246.761307 
	C198.226898,246.768143 200.892502,246.752701 203.558105,246.751953 
	C251.376495,246.738754 299.194916,246.711304 347.013214,246.760544 
	C349.271912,246.762878 352.401825,245.578751 353.189697,249.221420 
	C354.033661,253.123306 352.610107,255.396591 347.784882,255.055450 
z"/>
<path fill="#000000" opacity="1.000000" stroke="none" 
	d="
M669.286072,233.846466 
	C720.195679,233.804672 770.632629,233.798813 821.069641,233.760529 
	C824.056458,233.758255 826.864563,233.618164 826.922546,237.843811 
	C826.979187,241.973206 824.355042,242.188095 821.255432,242.185776 
	C771.317749,242.148514 721.380066,242.155334 671.442383,242.106934 
	C669.235962,242.104797 666.369263,242.709122 665.795959,239.472610 
	C665.364319,237.036102 665.066650,234.250641 669.286072,233.846466 
z"/>
<path fill="#000000" opacity="1.000000" stroke="none" 
	d="
M502.999634,256.266632 
	C490.659332,256.363953 478.855713,255.734863 467.131561,254.088196 
	C464.493134,253.717621 460.264526,253.966980 460.102448,250.776321 
	C459.914124,247.070145 464.312927,247.701660 466.811676,247.340103 
	C488.997620,244.130096 511.311920,244.435699 533.626648,245.411377 
	C540.438965,245.709244 547.267700,246.109467 553.965515,247.585876 
	C556.025208,248.039932 559.069763,247.907852 559.174194,250.486115 
	C559.301758,253.634415 555.873169,253.343048 553.818054,253.729996 
	C542.650146,255.832748 531.330261,256.224701 519.994202,256.252991 
	C514.495972,256.266693 508.997742,256.265259 502.999634,256.266632 
z"/>
<path fill="#000000" opacity="1.000000" stroke="none" 
	d="
M740.881348,319.989380 
	C739.118835,322.343323 736.927979,322.252991 734.749146,322.249725 
	C726.945557,322.238068 719.140625,322.322479 711.339050,322.197388 
	C708.762207,322.156097 705.329041,323.328735 704.847717,318.880646 
	C704.443604,315.146240 707.184753,310.266602 710.631226,310.143921 
	C720.412231,309.795837 730.218689,309.738373 740.000366,310.041443 
	C743.838501,310.160400 744.252014,314.402100 740.881348,319.989380 
z"/>
<path fill="#000000" opacity="1.000000" stroke="none" 
	d="
M671.109253,386.940521 
	C671.033630,389.404541 671.053528,391.406525 670.840881,393.383484 
	C670.695190,394.738312 670.166382,396.109802 668.406677,395.921326 
	C666.684204,395.736786 666.433167,394.310608 666.440735,392.939697 
	C666.462891,388.950745 666.682922,384.959656 666.596863,380.974365 
	C666.530090,377.881805 666.013977,374.499725 662.028381,374.503296 
	C658.515076,374.506439 656.811096,377.364258 656.459961,380.520203 
	C656.075806,383.972443 656.365906,387.494751 656.222717,390.980804 
	C656.146179,392.842804 656.853394,395.649780 654.074829,395.770966 
	C651.150146,395.898560 651.834473,393.045624 651.772278,391.223022 
	C651.642029,387.402832 651.696594,383.575684 651.708984,379.751526 
	C651.717346,377.169281 650.897644,375.052795 648.157288,374.481201 
	C645.108154,373.845154 643.478455,375.883820 642.526672,378.316925 
	C641.166870,381.793030 641.352966,385.492035 641.485535,389.160828 
	C641.545105,390.806732 641.502014,392.469788 641.327087,394.105957 
	C641.212463,395.177643 640.461182,395.933105 639.303894,395.914917 
	C638.116211,395.896301 637.392090,395.006989 637.377136,393.991516 
	C637.271912,386.853973 637.243286,379.714661 637.277588,372.576355 
	C637.282410,371.569672 638.126526,370.174591 639.018860,370.516663 
	C643.819824,372.357147 649.145935,367.394562 653.691589,371.761810 
	C654.911865,372.934235 656.071594,372.059479 657.310791,371.479706 
	C665.086304,367.841888 670.347656,370.923462 670.985657,379.486816 
	C671.158264,381.803925 671.072815,384.140289 671.109253,386.940521 
z"/>
<path fill="#000000" opacity="1.000000" stroke="none" 
	d="
M456.443878,383.237549 
	C455.924286,394.417633 450.080383,398.409546 439.041473,395.462067 
	C437.893066,397.274261 438.668243,399.317047 438.392731,401.226776 
	C438.154755,402.876221 439.115387,405.497681 436.412384,405.524323 
	C433.602356,405.552032 433.935669,402.909607 433.904877,400.978271 
	C433.838806,396.830841 433.883972,392.681580 433.885590,388.533081 
	C433.887512,383.720917 433.801758,378.906342 433.930420,374.097534 
	C434.000793,371.466125 434.765106,369.260620 438.183075,370.915924 
	C439.007843,371.315399 439.714142,371.120483 440.547760,370.926270 
	C451.056519,368.477692 455.800903,372.058289 456.443878,383.237549 
M450.473816,377.278961 
	C446.341187,373.342621 442.282471,373.431793 439.895782,377.748260 
	C437.843811,381.459412 437.720337,385.341858 440.171509,389.026031 
	C442.901886,393.129913 448.377625,392.901733 450.642822,388.496735 
	C452.396606,385.086243 452.297729,381.503967 450.473816,377.278961 
z"/>
<path fill="#000000" opacity="1.000000" stroke="none" 
	d="
M358.766510,385.237579 
	C354.535004,385.469635 350.715332,384.797485 346.691559,385.801056 
	C346.985382,390.066406 349.672211,391.459290 353.203278,391.796173 
	C354.669342,391.936035 356.186005,391.755188 357.658447,391.559998 
	C359.131195,391.364777 360.885162,390.646515 361.347015,392.735870 
	C361.806549,394.814819 360.120789,395.621582 358.441864,396.082642 
	C353.669617,397.393188 349.121368,396.941589 345.380737,393.501709 
	C341.549683,389.978668 340.310211,385.419128 341.333069,380.341949 
	C342.965210,372.240845 349.176910,368.154816 356.091064,370.525970 
	C360.692322,372.103973 363.681213,377.040771 363.184509,381.865906 
	C362.921570,384.419922 361.571320,385.310516 358.766510,385.237579 
M355.737335,380.836212 
	C360.075531,380.123566 358.177490,377.777008 356.761597,376.064178 
	C355.307770,374.305481 353.074188,373.848022 350.888489,374.618439 
	C348.453461,375.476715 346.802277,377.119202 346.506287,380.049988 
	C349.402039,381.435822 352.219666,380.671082 355.737335,380.836212 
z"/>
<path fill="#000000" opacity="1.000000" stroke="none" 
	d="
M201.649933,361.887268 
	C207.018417,362.457092 211.352264,364.197693 212.900299,369.319336 
	C214.220444,373.686981 213.540741,377.893616 209.752396,381.121490 
	C207.333282,383.182770 204.380997,384.048035 201.427612,383.981537 
	C197.098480,383.884094 196.039642,385.841919 196.207932,389.739624 
	C196.297684,391.818512 197.442200,395.533569 194.500916,395.652802 
	C190.841995,395.801147 192.259506,391.916840 192.182709,389.740021 
	C191.959961,383.426300 192.080704,377.100677 192.052414,370.779785 
	C192.012238,361.799866 192.006805,361.799896 201.649933,361.887268 
M206.410233,367.994415 
	C198.488403,364.142578 196.233566,365.433014 196.309845,373.786041 
	C196.320358,374.938477 196.334961,376.095001 196.438995,377.241333 
	C196.559052,378.564087 197.376907,379.365204 198.666763,379.488892 
	C202.055954,379.813782 205.439835,379.624664 207.638031,376.620911 
	C209.630157,373.898773 209.255829,371.052887 206.410233,367.994415 
z"/>
<path fill="#000000" opacity="1.000000" stroke="none" 
	d="
M559.155273,374.163055 
	C561.783569,380.601288 560.390930,386.981873 560.749146,393.223328 
	C560.813354,394.342194 560.170715,396.118835 559.016296,395.875397 
	C554.880859,395.003326 550.870911,397.547882 546.800171,396.102661 
	C543.428101,394.905426 541.874939,392.388580 541.671570,388.899597 
	C541.443176,384.981171 543.564575,382.624634 546.943970,381.344086 
	C548.783997,380.646851 550.817810,380.460785 552.764282,380.044617 
	C554.057556,379.768097 555.570068,379.685669 555.559692,377.850281 
	C555.549927,376.127686 554.428955,375.039948 552.925049,374.601593 
	C550.813293,373.985962 548.672241,374.151733 546.582458,374.984070 
	C545.341614,375.478241 543.856873,376.017120 543.296387,374.154510 
	C542.848450,372.666138 543.841553,371.679993 545.046387,370.927551 
	C548.989563,368.464813 555.188782,369.742462 559.155273,374.163055 
M548.266785,391.549591 
	C549.075745,391.664612 549.883789,391.869965 550.693787,391.877472 
	C553.014038,391.898987 554.946289,391.176941 555.614441,388.688019 
	C555.972046,387.355774 555.962646,385.861450 554.361145,385.405487 
	C552.113464,384.765533 549.700134,384.675507 547.753174,386.157196 
	C545.854614,387.602112 545.788208,389.453857 548.266785,391.549591 
z"/>
<path fill="#000000" opacity="1.000000" stroke="none" 
	d="
M493.349640,366.792206 
	C493.516205,368.457031 492.910614,369.877716 494.313568,371.129150 
	C495.752014,370.742340 497.302277,370.175781 498.902100,369.922577 
	C504.317352,369.065674 508.552734,372.117706 509.009552,377.684601 
	C509.417023,382.650452 509.202362,387.670746 509.178986,392.666595 
	C509.171875,394.185028 508.947021,395.924591 506.897217,395.868378 
	C504.837585,395.811859 504.810822,394.027466 504.786224,392.534576 
	C504.720337,388.537109 504.710266,384.538086 504.731903,380.540009 
	C504.747864,377.587372 503.863739,375.073456 500.696259,374.525818 
	C497.686310,374.005432 495.725769,375.864807 494.376343,378.425568 
	C492.720001,381.568817 493.489899,384.955322 493.343628,388.249023 
	C493.299316,389.246338 493.451599,390.259857 493.334991,391.244812 
	C493.120270,393.058502 494.074921,395.917297 491.076508,395.859650 
	C488.196899,395.804230 488.880981,392.994598 488.861084,391.149536 
	C488.772949,382.986877 488.730682,374.821747 488.851410,366.660156 
	C488.882385,364.564697 487.691101,361.102814 491.037811,360.980957 
	C494.660645,360.849091 492.862701,364.407318 493.349640,366.792206 
z"/>
<path fill="#000000" opacity="1.000000" stroke="none" 
	d="
M706.578369,371.218628 
	C716.831360,367.763092 722.132629,371.495392 722.228394,381.797546 
	C722.240784,383.128174 722.234192,384.458954 722.233215,385.789673 
	C722.225220,396.745178 721.852356,397.076752 710.944763,396.345459 
	C706.717468,396.062042 704.060608,393.910767 703.379883,389.757385 
	C702.675842,385.461914 704.968933,382.758118 708.806946,381.371613 
	C710.659363,380.702393 712.695190,380.541687 714.647400,380.147766 
	C715.943970,379.886108 717.477295,379.818787 717.427673,377.965332 
	C717.388672,376.508362 716.465454,375.483215 715.192749,374.900085 
	C712.946045,373.870667 710.673462,374.128632 708.406067,374.947388 
	C707.314636,375.341522 706.076355,375.818054 705.317871,374.464111 
	C704.626770,373.230438 705.285645,372.243530 706.578369,371.218628 
M715.414734,384.901367 
	C713.773865,385.103638 712.019775,385.006897 710.517578,385.575500 
	C708.018188,386.521667 707.197449,388.679993 709.015076,390.693390 
	C710.934387,392.819366 713.718140,392.459564 715.844910,390.920013 
	C718.100586,389.287109 719.026794,387.070709 715.414734,384.901367 
z"/>
<path fill="#000000" opacity="1.000000" stroke="none" 
	d="
M250.402924,395.821899 
	C246.939026,393.696655 245.667343,390.833313 245.712814,387.226501 
	C245.769348,382.743256 245.696793,378.258484 245.741394,373.774933 
	C245.756088,372.296997 245.702255,370.485291 247.796036,370.446289 
	C249.769775,370.409485 250.111282,372.064575 250.137070,373.622528 
	C250.205750,377.773254 250.217697,381.925446 250.204178,386.076874 
	C250.193802,389.262604 251.031342,391.739014 254.821426,391.786835 
	C258.438171,391.832489 260.467255,389.834473 260.741364,386.395508 
	C261.057312,382.431030 260.913544,378.432037 261.089325,374.453339 
	C261.167419,372.685211 261.050507,370.341980 263.612183,370.382111 
	C265.834900,370.416840 265.828552,372.556183 265.844269,374.189911 
	C265.903351,380.333801 265.967529,386.481018 265.817932,392.621887 
	C265.755585,395.180573 265.080719,397.647217 261.620972,395.410095 
	C260.347931,394.586914 259.443176,395.428497 258.424255,395.912537 
	C255.882248,397.120209 253.320160,397.267151 250.402924,395.821899 
z"/>
<path fill="#000000" opacity="1.000000" stroke="none" 
	d="
M817.544556,383.370605 
	C818.802795,379.722626 819.913330,376.407379 821.131531,373.132172 
	C821.729614,371.524261 822.662476,369.830292 824.697876,370.402130 
	C827.104126,371.078156 826.198853,373.024994 825.634338,374.528564 
	C822.767456,382.163940 819.935791,389.815948 816.863831,397.369446 
	C815.358826,401.070160 812.751282,403.840576 808.453369,404.364594 
	C806.906677,404.553162 805.318298,404.649902 804.952087,402.597565 
	C804.650391,400.906494 805.816528,400.406677 807.183533,399.867279 
	C813.261780,397.468872 813.783325,396.170471 811.291504,390.224976 
	C809.167969,385.158447 806.965149,380.124298 804.916016,375.028107 
	C804.297119,373.488831 802.664368,371.415833 805.360779,370.398773 
	C807.663513,369.530182 808.563721,371.634338 809.267822,373.307953 
	C811.253540,378.028320 813.124939,382.796844 815.063599,387.601227 
	C817.126465,386.742493 816.668884,384.890930 817.544556,383.370605 
z"/>
<path fill="#000000" opacity="1.000000" stroke="none" 
	d="
M763.630615,375.461914 
	C758.818176,378.626373 758.040100,382.891022 760.000610,387.424683 
	C761.878723,391.767517 765.596375,393.281830 770.286804,392.034424 
	C771.577698,391.691071 773.104919,391.237488 773.544739,393.091339 
	C773.967468,394.873260 772.729736,395.778656 771.211304,396.382629 
	C767.658997,397.795532 764.347656,396.934021 761.164368,395.280396 
	C755.495178,392.335510 753.045410,385.162933 755.330322,378.413177 
	C757.340698,372.474182 763.218201,368.898682 769.423340,369.882141 
	C771.864624,370.269043 773.965881,371.013824 773.153809,374.543579 
	C770.028870,374.897919 766.797424,373.368896 763.630615,375.461914 
z"/>
<path fill="#000000" opacity="1.000000" stroke="none" 
	d="
M302.222900,370.352356 
	C304.359192,371.656189 306.025513,370.826447 307.762665,370.245392 
	C309.219818,369.757996 310.869934,369.552002 311.597412,371.348724 
	C312.404846,373.343048 310.919525,373.893799 309.367004,374.343262 
	C305.307587,375.518524 304.266357,378.706512 304.169678,382.423767 
	C304.075073,386.063629 304.136627,389.707947 304.015228,393.346497 
	C303.967773,394.769165 303.306274,395.999939 301.624023,395.931732 
	C300.132629,395.871246 299.785828,394.654480 299.779663,393.448151 
	C299.744110,386.494843 299.742889,379.541229 299.772675,372.587860 
	C299.778290,371.280579 300.442383,370.399414 302.222900,370.352356 
z"/>
<path fill="#000000" opacity="1.000000" stroke="none" 
	d="
M598.307922,385.250366 
	C598.302307,388.205444 598.364502,390.702362 598.257141,393.191956 
	C598.198425,394.552490 597.825867,395.969849 596.021973,395.876038 
	C594.608459,395.802582 594.010315,394.662811 594.000427,393.450439 
	C593.944702,386.636444 593.961670,379.821533 594.014465,373.007446 
	C594.019226,372.393768 594.413940,371.271942 594.696899,371.249176 
	C598.279541,370.960815 601.912354,370.479401 605.446106,370.856293 
	C606.640259,370.983612 606.292175,373.410614 604.747986,373.850891 
	C599.028809,375.481567 598.190552,379.816132 598.307922,385.250366 
z"/>
</svg>